<svg xmlns="http://www.w3.org/2000/svg" id="Layer_2" width="979.8" height="213.3" viewBox="20 131 979.8 213.3">
  <style id="style3">
    .st0{fill:#898989}.st1{fill:none;stroke:#898989;stroke-width:1.5;stroke-miterlimit:10}
  </style>
  <g id="g5" transform="translate(-8.95 -43.2)">
    <g id="g7">
      <path class="st0" d="M59.4 254.6v52.3h9.9v4.9H43.5v-4.9H54v-45.4l-11 3.4v-5.3l16.4-5z" id="path9" fill="#898989"/>
      <path class="st0" d="M108.7 285.7v10.1c.1 6.7.3 12 .4 15.9h-6.2v-1.4c0-.4.1-3 .2-7.7l.1-6.8V273l-.1-6.9c-.1-4.7-.2-7.3-.2-8V257h29.4v4.9h-23.6V281h17.8v4.9h-17.8v-.2z" id="path11" fill="#898989"/>
      <path class="st0" d="M175.2 311.8H169v-2c.1-5.6.3-10.2.3-13.9v-34h-15.7V257h36.6v4.9h-15.5v34c.1 4.5.2 9.2.3 13.9v1l.2 1z" id="path13" fill="#898989"/>
      <path class="st0" d="M239.1 283l.7.4c5 2.7 7.5 7.2 7.5 13.5 0 3.7-.8 6.7-2.4 9-1.5 2.2-3.6 3.8-6.2 5-2.8 1.2-5.7 1.9-8.8 1.9-5.1 0-9.3-1.4-12.7-4.1-3.2-2.7-4.9-6.6-4.9-11.9 0-6.1 2.5-10.6 7.5-13.3l.7-.4c-1.7-1.2-2.9-2.3-3.6-3.3-1.9-2.5-2.8-5.5-2.8-9 0-4.7 1.6-8.4 4.8-11.2 2.8-2.4 6.4-3.6 10.8-3.6 4.5 0 8.1 1.2 10.9 3.7 3.1 2.8 4.7 6.5 4.7 11.1 0 3.9-1.1 7.1-3.3 9.7-.5.6-1.5 1.5-2.9 2.5zm-9.4 2.8c-3.2 0-5.9.8-8 2.5-2.5 1.9-3.7 4.7-3.7 8.4 0 3.6 1.2 6.5 3.7 8.4 2.1 1.7 4.8 2.5 8.1 2.5 3.4 0 6.1-.8 8.2-2.5 2.5-2 3.7-4.8 3.7-8.4 0-3.7-1.2-6.5-3.7-8.4-2.1-1.7-4.9-2.5-8.3-2.5zm0-24.7c-2.8 0-5 .7-6.7 2.2-.9.8-1.7 2-2.2 3.4-.6 1.4-.8 2.9-.8 4.5 0 3.1 1 5.5 3.1 7.3 1.8 1.5 4.1 2.3 6.9 2.3 2.9 0 5.2-.7 6.9-2.2 2.1-1.8 3.1-4.3 3.1-7.6s-1-5.9-3.1-7.6c-1.9-1.6-4.3-2.3-7.2-2.3z" id="path15" fill="#898989"/>
      <path class="st0" d="M287.4 272.5l8.8 27.6 1.4-16.1c.7-8.9 1.2-18 1.4-27.2h6.2c-.8 7.4-1.6 16.5-2.5 27.2-.8 9.5-1.2 14.9-1.3 16.3-.1 1.4-.3 5.3-.6 11.9h-6.4l-7.1-24.1-7.1 24.1h-6.4c-.3-6.7-.5-10.7-.5-11.9-.1-1.3-.5-6.6-1.3-16.1-.8-10.7-1.6-19.8-2.5-27.2h6.2c.1 6.3.3 10.9.4 13.9.1 3 .5 7.4 1 13.3l1.4 16.1 8.9-27.8z" id="path17" fill="#898989"/>
      <path class="st0" d="M333.5 268.6l-4.7-2.7c.9-1.6 1.6-2.7 2.1-3.3 1.3-1.7 2.9-3.2 4.8-4.3 2.7-1.6 5.7-2.5 8.8-2.5 4.6 0 8.4 1.7 11.3 5 2.3 2.6 3.5 5.7 3.5 9.2 0 2.5-.5 4.6-1.6 6.4-1.1 1.8-2.9 3.6-5.5 5.4 6.4 2.9 9.6 7.7 9.6 14.5 0 4.5-1.4 8.2-4.2 11.1-3.2 3.4-7.5 5.2-12.9 5.2-5.8 0-10.6-2.4-14.3-7.1-.5-.7-1.3-1.8-2.3-3.4l4.9-2.9c.2.4.4.7.5.9 2.4 4.8 6.1 7.2 11.2 7.2 3.9 0 6.8-1.2 8.9-3.5 1.7-1.9 2.6-4.4 2.6-7.4 0-3.5-1.1-6.2-3.2-8.2-2.4-2.3-5.6-3.5-9.5-3.5h-1.7v-5.1h.9c2.4-.1 4.5-.7 6.3-1.8 3.1-2 4.7-4.6 4.7-8 0-2-.6-3.8-1.7-5.3-1.9-2.5-4.4-3.7-7.7-3.7-3.8 0-6.9 1.8-9.5 5.3-.1.4-.5 1.1-1.3 2.5z" id="path19" fill="#898989"/>
      <path class="st0" d="M389.1 256.9h12.4c3.4 0 6.2.4 8.2 1.2 3.6 1.5 6.2 3.9 7.8 7.4 2.1 4.7 3.1 10.9 3.1 18.8 0 6-.5 10.8-1.6 14.6-1 3.8-2.7 6.7-4.9 8.8-1.6 1.5-3.4 2.6-5.2 3.2-1.8.6-4.3.9-7.4.9h-12.4v-1.4c0-.4.1-3 .2-7.7l.1-6.8V273l-.1-6.8c-.1-4.6-.2-7.3-.2-8v-1.3zm5.7 50h6.3c5.3 0 9-1.6 10.9-4.8 1.9-3.2 2.9-9.1 2.9-17.8 0-8.7-1-14.6-2.9-17.8-1.9-3.2-5.6-4.7-10.9-4.7h-6.3v45.1z" id="path21" fill="#898989"/>
      <path class="st0" d="M464.5 311.8h-6.2v-2c.1-5.6.3-10.2.3-13.9v-34H443V257h36.6v4.9H464v34c.1 4.5.2 9.2.3 13.9v1l.2 1z" id="path23" fill="#898989"/>
      <path class="st0" d="M528.3 283l.7.4c5 2.7 7.5 7.2 7.5 13.5 0 3.7-.8 6.7-2.4 9-1.5 2.2-3.6 3.8-6.2 5-2.8 1.2-5.7 1.9-8.8 1.9-5.1 0-9.3-1.4-12.7-4.1-3.2-2.7-4.9-6.6-4.9-11.9 0-6.1 2.5-10.6 7.5-13.3l.7-.4c-1.7-1.2-2.9-2.3-3.6-3.3-1.9-2.5-2.8-5.5-2.8-9 0-4.7 1.6-8.4 4.8-11.2 2.8-2.4 6.4-3.6 10.8-3.6 4.5 0 8.2 1.2 10.9 3.7 3.1 2.8 4.7 6.5 4.7 11.1 0 3.9-1.1 7.1-3.3 9.7-.5.6-1.5 1.5-2.9 2.5zm-9.4 2.8c-3.2 0-5.9.8-8 2.5-2.5 1.9-3.7 4.7-3.7 8.4 0 3.6 1.2 6.5 3.7 8.4 2.1 1.7 4.8 2.5 8.1 2.5s6.1-.8 8.2-2.5c2.5-2 3.7-4.8 3.7-8.4 0-3.7-1.2-6.5-3.7-8.4-2.1-1.7-4.9-2.5-8.3-2.5zm0-24.7c-2.8 0-5 .7-6.7 2.2-.9.8-1.7 2-2.2 3.4-.6 1.4-.8 2.9-.8 4.5 0 3.1 1 5.5 3.1 7.3 1.8 1.5 4.1 2.3 6.9 2.3 2.9 0 5.2-.7 6.9-2.2 2.1-1.8 3.1-4.3 3.1-7.6s-1-5.9-3.1-7.6c-1.9-1.6-4.3-2.3-7.2-2.3z" id="path25" fill="#898989"/>
      <path class="st0" d="M562.3 256.9h10.2c3.3 0 5.8.1 7.5.4 1.7.3 3.2.8 4.6 1.5 1.5.9 2.8 2.1 3.9 3.6 1.7 2.4 2.5 5.2 2.5 8.3 0 3.3-1.1 6.2-3.2 8.7-1.2 1.4-2.2 2.4-2.9 2.8l-1 .6.7.3c2.7 1.2 4.9 3 6.4 5.5 1.5 2.4 2.3 5.2 2.3 8.2 0 5.6-2.2 9.9-6.5 12.8-1.3.8-2.7 1.4-4.2 1.8-1.5.4-3.5.5-5.8.5h-14.5c0-.3 0-1 .1-2.1l.1-7 .1-6.8v-23l-.1-6.8-.1-7.1c-.1-1.2-.1-1.9-.1-2.2zm5.8 24h5.3c2.7 0 5.1-.6 7.1-1.7 3.3-1.8 4.9-4.7 4.9-8.6 0-3.6-1.3-6.1-3.8-7.6-1.4-.8-4-1.3-7.7-1.3h-5.8v19.2zm0 26h8.7c2 0 3.5-.2 4.7-.5 1.2-.3 2.2-1 3.3-2 2-1.8 3-4.2 3-7.1 0-4-1.4-7-4.3-9.1-1.3-.9-2.5-1.6-3.7-1.9-1.1-.3-2.8-.4-5-.4h-6.7v21z" id="path27" fill="#898989"/>
      <path class="st0" d="M622.5 311.8c0-.3 0-1 .1-2.1l.1-7 .1-6.8V273l-.1-6.8-.1-7.1c0-1.1-.1-1.8-.1-2.1H651v4.9h-22.7v19.5h16.5v4.9h-16.5V307h23.2v4.9l-29-.1z" id="path29" fill="#898989"/>
      <path class="st0" d="M708.3 269h-5.6c-.1-1.6-.4-2.7-.7-3.5-1.4-2.9-3.9-4.4-7.5-4.4-3.8 0-6.7 1.6-8.8 4.9-2.4 3.7-3.6 10-3.6 18.9 0 8.7 1.2 14.8 3.7 18.4 2 2.8 4.7 4.3 8.2 4.3 1.9 0 3.6-.4 5.1-1.3 1.5-.9 2.6-2 3.3-3.5.4-.9.8-2.4 1-4.5h5.4c-.4 3.3-1.1 5.8-2 7.6-.9 1.8-2.3 3.3-4.2 4.5-2.5 1.6-5.4 2.4-8.8 2.4-11.6 0-17.4-9.3-17.4-27.8 0-11.9 2.2-20.1 6.7-24.6 3-3 6.7-4.5 11.2-4.5 4.1 0 7.5 1.3 10 3.9 1.3 1.3 2.2 2.6 2.8 3.9.6 1.3 1 3.1 1.2 5.3z" id="path31" fill="#898989"/>
      <path class="st0" d="M738.4 268.6l-4.7-2.7c.9-1.6 1.6-2.7 2.1-3.3 1.3-1.7 2.9-3.2 4.8-4.3 2.7-1.6 5.7-2.5 8.8-2.5 4.6 0 8.4 1.7 11.3 5 2.3 2.6 3.5 5.7 3.5 9.2 0 2.5-.5 4.6-1.6 6.4-1.1 1.8-2.9 3.6-5.5 5.4 6.4 2.9 9.6 7.7 9.6 14.5 0 4.5-1.4 8.2-4.2 11.1-3.2 3.4-7.5 5.2-12.9 5.2-5.8 0-10.6-2.4-14.3-7.1-.5-.7-1.3-1.8-2.3-3.4l4.9-2.9c.2.4.4.7.5.9 2.4 4.8 6.1 7.2 11.2 7.2 3.9 0 6.8-1.2 8.9-3.5 1.7-1.9 2.6-4.4 2.6-7.4 0-3.5-1.1-6.2-3.2-8.2-2.4-2.3-5.6-3.5-9.5-3.5h-1.7v-5.1h.9c2.4-.1 4.5-.7 6.3-1.8 3.1-2 4.7-4.6 4.7-8 0-2-.6-3.8-1.7-5.3-1.9-2.5-4.4-3.7-7.7-3.7-3.8 0-6.9 1.8-9.5 5.3-.1.4-.5 1.1-1.3 2.5z" id="path33" fill="#898989"/>
      <path class="st0" d="M817.5 283l.7.4c5 2.7 7.5 7.2 7.5 13.5 0 3.7-.8 6.7-2.4 9-1.5 2.2-3.6 3.8-6.2 5-2.8 1.2-5.7 1.9-8.8 1.9-5.1 0-9.3-1.4-12.7-4.1-3.2-2.7-4.9-6.6-4.9-11.9 0-6.1 2.5-10.6 7.5-13.3l.7-.4c-1.7-1.2-2.9-2.3-3.6-3.3-1.9-2.5-2.8-5.5-2.8-9 0-4.7 1.6-8.4 4.8-11.2 2.8-2.4 6.4-3.6 10.8-3.6 4.5 0 8.1 1.2 10.9 3.7 3.1 2.8 4.7 6.5 4.7 11.1 0 3.9-1.1 7.1-3.3 9.7-.5.6-1.5 1.5-2.9 2.5zm-9.4 2.8c-3.2 0-5.9.8-8 2.5-2.5 1.9-3.7 4.7-3.7 8.4 0 3.6 1.2 6.5 3.7 8.4 2.1 1.7 4.8 2.5 8.1 2.5 3.4 0 6.1-.8 8.2-2.5 2.5-2 3.7-4.8 3.7-8.4 0-3.7-1.2-6.5-3.7-8.4-2.1-1.7-4.9-2.5-8.3-2.5zm0-24.7c-2.8 0-5 .7-6.7 2.2-.9.8-1.7 2-2.2 3.4-.6 1.4-.8 2.9-.8 4.5 0 3.1 1 5.5 3.1 7.3 1.8 1.5 4.1 2.3 6.9 2.3 2.9 0 5.2-.7 6.9-2.2 2.1-1.8 3.1-4.3 3.1-7.6s-1-5.9-3.1-7.6c-1.9-1.6-4.2-2.3-7.2-2.3z" id="path35" fill="#898989"/>
      <path class="st0" d="M875.4 283l.7.4c5 2.7 7.5 7.2 7.5 13.5 0 3.7-.8 6.7-2.4 9-1.5 2.2-3.6 3.8-6.2 5-2.8 1.2-5.7 1.9-8.8 1.9-5.1 0-9.3-1.4-12.7-4.1-3.2-2.7-4.9-6.6-4.9-11.9 0-6.1 2.5-10.6 7.5-13.3l.7-.4c-1.7-1.2-2.9-2.3-3.6-3.3-1.9-2.5-2.8-5.5-2.8-9 0-4.7 1.6-8.4 4.8-11.2 2.8-2.4 6.4-3.6 10.8-3.6 4.5 0 8.1 1.2 10.9 3.7 3.1 2.8 4.7 6.5 4.7 11.1 0 3.9-1.1 7.1-3.3 9.7-.5.6-1.5 1.5-2.9 2.5zm-9.4 2.8c-3.2 0-5.9.8-8 2.5-2.5 1.9-3.7 4.7-3.7 8.4 0 3.6 1.2 6.5 3.7 8.4 2.1 1.7 4.8 2.5 8.1 2.5 3.4 0 6.1-.8 8.2-2.5 2.5-2 3.7-4.8 3.7-8.4 0-3.7-1.2-6.5-3.7-8.4-2.2-1.7-4.9-2.5-8.3-2.5zm-.1-24.7c-2.8 0-5 .7-6.7 2.2-.9.8-1.7 2-2.2 3.4-.6 1.4-.8 2.9-.8 4.5 0 3.1 1 5.5 3.1 7.3 1.8 1.5 4.1 2.3 6.9 2.3 2.9 0 5.2-.7 6.9-2.2 2.1-1.8 3.1-4.3 3.1-7.6s-1-5.9-3.1-7.6c-1.8-1.6-4.2-2.3-7.2-2.3z" id="path37" fill="#898989"/>
      <path class="st0" d="M908.3 309.4l2.7-4.7c3.1 1.9 5.7 2.9 7.9 2.9 2.7 0 5.2-1.1 7.6-3.3 2.3-2.1 4.1-5.2 5.6-9.5 1.1-3.3 1.7-6 1.7-8.1v-.7l-.4.6c-1.2 1.5-2.8 2.8-4.9 3.8-2.1 1-4.1 1.5-6.2 1.5-4.2 0-7.6-1.5-10.2-4.4-2.9-3.2-4.3-7.5-4.3-12.8 0-4.3 1-8.1 3-11.4 1.7-2.8 4-4.8 6.8-6 1.9-.8 4-1.3 6.1-1.3 4 0 7.4 1.4 10 4.1 3.8 4 5.8 10.7 5.8 20 0 12-2.8 21-8.4 26.9-3.7 3.8-7.8 5.8-12.4 5.8-3.1 0-6.5-1.2-10.4-3.4zm15.4-48.3c-2.6 0-4.9 1-6.7 3-2.3 2.5-3.5 6-3.5 10.7 0 4.4 1.2 7.7 3.6 9.8 1.6 1.4 3.4 2.1 5.6 2.1 2.4 0 4.7-1 6.8-3 2.7-2.6 4-5.9 4-10.1 0-3.7-.9-6.8-2.7-9.1-1.8-2.3-4.2-3.4-7.1-3.4z" id="path39" fill="#898989"/>
      <path class="st0" d="M966.2 309.4l2.7-4.7c3.1 1.9 5.7 2.9 7.9 2.9 2.7 0 5.2-1.1 7.6-3.3 2.3-2.1 4.1-5.2 5.6-9.5 1.1-3.3 1.7-6 1.7-8.1v-.7l-.4.6c-1.2 1.5-2.8 2.8-4.9 3.8-2.1 1-4.1 1.5-6.2 1.5-4.2 0-7.6-1.5-10.2-4.4-2.9-3.2-4.3-7.5-4.3-12.8 0-4.3 1-8.1 3-11.4 1.7-2.8 4-4.8 6.8-6 1.9-.8 4-1.3 6.1-1.3 4 0 7.4 1.4 10 4.1 3.8 4 5.8 10.7 5.8 20 0 12-2.8 21-8.4 26.9-3.7 3.8-7.8 5.8-12.4 5.8-3.1 0-6.6-1.2-10.4-3.4zm15.3-48.3c-2.6 0-4.9 1-6.7 3-2.3 2.5-3.5 6-3.5 10.7 0 4.4 1.2 7.7 3.6 9.8 1.6 1.4 3.4 2.1 5.6 2.1 2.4 0 4.7-1 6.8-3 2.7-2.6 4-5.9 4-10.1 0-3.7-.9-6.8-2.7-9.1-1.8-2.3-4.1-3.4-7.1-3.4z" id="path41" fill="#898989"/>
    </g>
  </g>
  <g id="g43" transform="translate(-8.95 -43.2)">
    <g id="g45">
      <path class="st0" d="M59.1 177.5h1.8l3.2 8.4 3.2-8.4h1.8v10h-1.3v-8.3l-3.1 8.3h-1.1l-3.1-8.3v8.3h-1.3v-10h-.1z" id="path47" fill="#898989"/>
      <path class="st0" d="M74.2 177.5h1.5l3.9 10h-1.5l-1.1-3h-4.2l-1.1 3h-1.4l3.9-10zm-1 5.8h3.4l-1.6-4.6-1.8 4.6z" id="path49" fill="#898989"/>
      <path class="st0" d="M80.8 177.5h1.4l5.3 8.1v-8.1h1.3v10h-1.5l-5.2-8v8h-1.3v-10z" id="path51" fill="#898989"/>
      <path class="st0" d="M99.2 183.8c0 2.5-1.4 3.9-3.9 3.9-2.6 0-4.1-1.2-4.1-3.9v-6.4h1.3v6.4c0 1.8 1 2.7 2.8 2.7 1.7 0 2.6-1 2.6-2.7v-6.4h1.3v6.4z" id="path53" fill="#898989"/>
      <path class="st0" d="M101.5 177.5h6.6v1.1h-5.2v3.2h4.6v1.1h-4.6v4.6h-1.3l-.1-10z" id="path55" fill="#898989"/>
      <path class="st0" d="M111.7 177.5h1.5l3.9 10h-1.5l-1.1-3h-4.2l-1.1 3h-1.4l3.9-10zm-1 5.8h3.4l-1.7-4.7-1.7 4.7z" id="path57" fill="#898989"/>
      <path class="st0" d="M125.4 180.5c-.3-1.4-1.4-2.1-2.8-2.1-2.4 0-3.4 2-3.4 4 0 2.3 1 4.2 3.4 4.2 1.8 0 2.8-1.2 2.9-2.9h1.3c-.3 2.5-1.8 4-4.3 4-3.1 0-4.6-2.3-4.6-5.2 0-2.9 1.7-5.3 4.7-5.3 2.1 0 3.8 1.1 4.1 3.3h-1.3z" id="path59" fill="#898989"/>
      <path class="st0" d="M130.9 178.6h-3.3v-1.1h8v1.1h-3.3v8.9H131v-8.9h-.1z" id="path61" fill="#898989"/>
      <path class="st0" d="M144.9 183.8c0 2.5-1.4 3.9-3.9 3.9-2.6 0-4.1-1.2-4.1-3.9v-6.4h1.3v6.4c0 1.8 1 2.7 2.8 2.7 1.7 0 2.6-1 2.6-2.7v-6.4h1.3v6.4z" id="path63" fill="#898989"/>
      <path class="st0" d="M147.3 177.5h4.7c1.9 0 3 1 3 2.6 0 1.2-.5 2.2-1.7 2.5 1.2.2 1.4 1.1 1.5 2.1.1 1 0 2.1.6 2.8h-1.5c-.4-.4-.2-1.5-.4-2.5-.1-1-.4-1.8-1.7-1.8h-3.2v4.3h-1.3v-10zm4.1 4.6c1.2 0 2.3-.3 2.3-1.8 0-1-.5-1.7-1.8-1.7h-3.3v3.5h2.8z" id="path65" fill="#898989"/>
      <path class="st0" d="M157.1 177.5h6.9v1.1h-5.6v3.2h5.2v1.1h-5.2v3.5h5.6v1.1h-6.9v-10z" id="path67" fill="#898989"/>
      <path class="st0" d="M165.9 177.5h4.7c1.9 0 3 1 3 2.6 0 1.2-.5 2.2-1.7 2.5 1.2.2 1.4 1.1 1.5 2.1.1 1 0 2.1.6 2.8h-1.5c-.4-.4-.2-1.5-.4-2.5-.1-1-.4-1.8-1.7-1.8h-3.2v4.3h-1.3v-10zm4.1 4.6c1.2 0 2.3-.3 2.3-1.8 0-1-.5-1.7-1.8-1.7h-3.3v3.5h2.8z" id="path69" fill="#898989"/>
      <path class="st0" d="M79.5 194.3h1.3v10h-1.3v-10z" id="path71" fill="#898989"/>
      <path class="st0" d="M83.3 194.3h3.4c3.1 0 4.8 1.5 4.8 4.8s-1.5 5.2-4.8 5.2h-3.4v-10zm1.3 8.8h2.2c.9 0 3.4-.3 3.4-3.9 0-2.4-.9-3.8-3.3-3.8h-2.2l-.1 7.7z" id="path73" fill="#898989"/>
      <path class="st0" d="M93.4 194.3h6.9v1.1h-5.6v3.2h5.2v1.1h-5.2v3.5h5.6v1.1h-6.9v-10z" id="path75" fill="#898989"/>
      <path class="st0" d="M102.2 194.3h1.4l5.3 8.1v-8.1h1.3v10h-1.5l-5.2-8v8h-1.3v-10z" id="path77" fill="#898989"/>
      <path class="st0" d="M114.8 195.4h-3.3v-1.1h8v1.1h-3.3v8.9h-1.3l-.1-8.9z" id="path79" fill="#898989"/>
      <path class="st0" d="M120.8 194.3h1.3v10h-1.3v-10z" id="path81" fill="#898989"/>
      <path class="st0" d="M124.7 194.3h6.6v1.1H126v3.2h4.6v1.1H126v4.6h-1.3v-10z" id="path83" fill="#898989"/>
      <path class="st0" d="M133 194.3h1.3v10H133v-10z" id="path85" fill="#898989"/>
      <path class="st0" d="M136.8 194.3h6.9v1.1h-5.6v3.2h5.2v1.1h-5.2v3.5h5.6v1.1h-6.9v-10z" id="path87" fill="#898989"/>
      <path class="st0" d="M145.6 194.3h4.7c1.9 0 3 1 3 2.6 0 1.2-.5 2.2-1.7 2.5 1.2.2 1.4 1.1 1.5 2.1.1 1 0 2.1.6 2.8h-1.5c-.4-.4-.2-1.5-.4-2.5-.1-1-.4-1.8-1.7-1.8h-3.2v4.3h-1.3v-10zm4.1 4.6c1.2 0 2.3-.3 2.3-1.8 0-1-.5-1.7-1.8-1.7h-3.3v3.5h2.8z" id="path89" fill="#898989"/>
    </g>
  </g>
  <g id="g91" transform="translate(-8.95 -43.2)">
    <g id="g93">
      <path class="st0" d="M268 204h-1.5l-3.5-10h1.4l2.9 8.7 2.9-8.7h1.4l-3.6 10z" id="path95" fill="#898989"/>
      <path class="st0" d="M272.9 194h6.9v1.1h-5.6v3.2h5.2v1.1h-5.2v3.5h5.6v1.1h-6.9v-10z" id="path97" fill="#898989"/>
      <path class="st0" d="M281.7 194h1.3v4.3h5.3V194h1.3v10h-1.3v-4.6H283v4.6h-1.3v-10z" id="path99" fill="#898989"/>
      <path class="st0" d="M292.1 194h1.3v10h-1.3v-10z" id="path101" fill="#898989"/>
      <path class="st0" d="M302.9 197c-.3-1.4-1.4-2.1-2.8-2.1-2.4 0-3.4 2-3.4 4 0 2.3 1 4.2 3.4 4.2 1.8 0 2.8-1.2 2.9-2.9h1.3c-.3 2.5-1.8 4-4.3 4-3.1 0-4.6-2.3-4.6-5.2 0-2.9 1.7-5.3 4.7-5.3 2.1 0 3.8 1.1 4.1 3.3h-1.3z" id="path103" fill="#898989"/>
      <path class="st0" d="M306.2 194h1.3v8.9h5.3v1.1h-6.6v-10z" id="path105" fill="#898989"/>
      <path class="st0" d="M314.3 194h6.9v1.1h-5.6v3.2h5.2v1.1h-5.2v3.5h5.6v1.1h-6.9v-10z" id="path107" fill="#898989"/>
      <path class="st0" d="M327.2 194h3.4c3.1 0 4.8 1.5 4.8 4.8s-1.5 5.2-4.8 5.2h-3.4v-10zm1.3 8.8h2.2c.9 0 3.4-.3 3.4-3.9 0-2.4-.9-3.8-3.3-3.8h-2.2v7.7h-.1z" id="path109" fill="#898989"/>
      <path class="st0" d="M337.3 194h6.9v1.1h-5.6v3.2h5.2v1.1h-5.2v3.5h5.6v1.1h-6.9v-10z" id="path111" fill="#898989"/>
      <path class="st0" d="M351.8 196.9c-.2-1.4-1.1-2-2.5-2-1.1 0-2.2.4-2.2 1.7 0 1.2 1.6 1.4 3.2 1.8 1.6.4 3.2.9 3.2 2.9 0 2.1-2.1 3-3.9 3-2.2 0-4.1-1.1-4.1-3.5h1.3c0 1.7 1.4 2.4 2.9 2.4 1.2 0 2.5-.4 2.5-1.8s-1.6-1.6-3.2-2c-1.6-.4-3.2-.8-3.2-2.6 0-2 1.8-2.9 3.6-2.9 2 0 3.6 1 3.7 3.2h-1.3v-.2z" id="path113" fill="#898989"/>
      <path class="st0" d="M362.4 197c-.3-1.4-1.4-2.1-2.8-2.1-2.4 0-3.4 2-3.4 4 0 2.3 1 4.2 3.4 4.2 1.8 0 2.8-1.2 2.9-2.9h1.3c-.3 2.5-1.8 4-4.3 4-3.1 0-4.6-2.3-4.6-5.2 0-2.9 1.7-5.3 4.7-5.3 2.1 0 3.8 1.1 4.1 3.3h-1.3z" id="path115" fill="#898989"/>
      <path class="st0" d="M365.7 194h4.7c1.9 0 3 1 3 2.6 0 1.2-.5 2.2-1.7 2.5 1.2.2 1.4 1.1 1.5 2.1.1 1 0 2.1.6 2.8h-1.5c-.4-.4-.2-1.5-.4-2.5-.1-1-.4-1.8-1.7-1.8H367v4.3h-1.3v-10zm4.1 4.6c1.2 0 2.3-.3 2.3-1.8 0-1-.5-1.7-1.8-1.7H367v3.5h2.8z" id="path117" fill="#898989"/>
      <path class="st0" d="M375.6 194h1.3v10h-1.3v-10z" id="path119" fill="#898989"/>
      <path class="st0" d="M379.4 194h4.4c2 0 3.1 1.1 3.1 3s-1.1 3-3.1 3h-3.1v4h-1.3v-10zm1.3 4.7h2.6c1.5 0 2.2-.6 2.2-1.8 0-1.2-.7-1.8-2.2-1.8h-2.6v3.6z" id="path121" fill="#898989"/>
      <path class="st0" d="M391 195.1h-3.3V194h8v1.1h-3.3v8.9H391v-8.9z" id="path123" fill="#898989"/>
      <path class="st0" d="M401.2 193.7c3.2 0 4.8 2.5 4.8 5.2s-1.6 5.2-4.8 5.2c-3.2 0-4.8-2.5-4.8-5.2s1.6-5.2 4.8-5.2zm0 9.4c2.4 0 3.5-2.1 3.5-4.1 0-2-1-4.1-3.5-4.1-2.4 0-3.5 2.1-3.5 4.1 0 2 1.1 4.1 3.5 4.1z" id="path125" fill="#898989"/>
      <path class="st0" d="M407.9 194h4.7c1.9 0 3 1 3 2.6 0 1.2-.5 2.2-1.7 2.5 1.2.2 1.4 1.1 1.5 2.1.1 1 0 2.1.6 2.8h-1.5c-.4-.4-.2-1.5-.4-2.5-.1-1-.4-1.8-1.7-1.8h-3.2v4.3h-1.3v-10zm4.1 4.6c1.2 0 2.3-.3 2.3-1.8 0-1-.5-1.7-1.8-1.7h-3.3v3.5h2.8z" id="path127" fill="#898989"/>
      <path class="st0" d="M427.6 196.9c-.2-1.4-1.1-2-2.5-2-1.1 0-2.2.4-2.2 1.7 0 1.2 1.6 1.4 3.2 1.8 1.6.4 3.2.9 3.2 2.9 0 2.1-2.1 3-3.9 3-2.2 0-4.1-1.1-4.1-3.5h1.3c0 1.7 1.4 2.4 2.9 2.4 1.2 0 2.5-.4 2.5-1.8s-1.6-1.6-3.2-2c-1.6-.4-3.2-.8-3.2-2.6 0-2 1.8-2.9 3.6-2.9 2 0 3.6 1 3.7 3.2h-1.3v-.2z" id="path129" fill="#898989"/>
      <path class="st0" d="M431.1 194h6.9v1.1h-5.6v3.2h5.2v1.1h-5.2v3.5h5.6v1.1h-6.9v-10z" id="path131" fill="#898989"/>
      <path class="st0" d="M447 197c-.3-1.4-1.4-2.1-2.8-2.1-2.4 0-3.4 2-3.4 4 0 2.3 1 4.2 3.4 4.2 1.8 0 2.8-1.2 2.9-2.9h1.3c-.3 2.5-1.8 4-4.3 4-3.1 0-4.6-2.3-4.6-5.2 0-2.9 1.7-5.3 4.7-5.3 2.1 0 3.8 1.1 4.1 3.3H447z" id="path133" fill="#898989"/>
      <path class="st0" d="M452.5 195.1h-3.3V194h8v1.1h-3.3v8.9h-1.3v-8.9h-.1z" id="path135" fill="#898989"/>
      <path class="st0" d="M458.6 194h1.3v10h-1.3v-10z" id="path137" fill="#898989"/>
      <path class="st0" d="M466.6 193.7c3.2 0 4.8 2.5 4.8 5.2s-1.6 5.2-4.8 5.2c-3.2 0-4.8-2.5-4.8-5.2s1.7-5.2 4.8-5.2zm0 9.4c2.4 0 3.5-2.1 3.5-4.1 0-2-1-4.1-3.5-4.1-2.4 0-3.5 2.1-3.5 4.1 0 2 1.1 4.1 3.5 4.1z" id="path139" fill="#898989"/>
      <path class="st0" d="M473.3 194h1.4l5.3 8.1V194h1.3v10h-1.5l-5.2-8v8h-1.3v-10z" id="path141" fill="#898989"/>
    </g>
  </g>
  <g id="g143" transform="translate(-8.95 -43.2)">
    <g id="g145">
      <path class="st0" d="M686 204h-1.5l-3.5-10h1.4l2.9 8.7 2.9-8.7h1.4l-3.6 10z" id="path147" fill="#898989"/>
      <path class="st0" d="M690.8 194h6.9v1.1h-5.6v3.2h5.2v1.1h-5.2v3.5h5.6v1.1h-6.9v-10z" id="path149" fill="#898989"/>
      <path class="st0" d="M699.6 194h1.3v4.3h5.3V194h1.3v10h-1.3v-4.6h-5.3v4.6h-1.3v-10z" id="path151" fill="#898989"/>
      <path class="st0" d="M710 194h1.3v10H710v-10z" id="path153" fill="#898989"/>
      <path class="st0" d="M720.8 197c-.3-1.4-1.4-2.1-2.8-2.1-2.4 0-3.4 2-3.4 4 0 2.3 1 4.2 3.4 4.2 1.8 0 2.8-1.2 2.9-2.9h1.3c-.3 2.5-1.8 4-4.3 4-3.1 0-4.6-2.3-4.6-5.2 0-2.9 1.7-5.3 4.7-5.3 2.1 0 3.8 1.1 4.1 3.3h-1.3z" id="path155" fill="#898989"/>
      <path class="st0" d="M724.2 194h1.3v8.9h5.3v1.1h-6.6v-10z" id="path157" fill="#898989"/>
      <path class="st0" d="M732.2 194h6.9v1.1h-5.6v3.2h5.2v1.1h-5.2v3.5h5.6v1.1h-6.9v-10z" id="path159" fill="#898989"/>
      <path class="st0" d="M745.2 194h1.3v10h-1.3v-10z" id="path161" fill="#898989"/>
      <path class="st0" d="M749 194h3.4c3.1 0 4.8 1.5 4.8 4.8s-1.5 5.2-4.8 5.2H749v-10zm1.3 8.8h2.2c.9 0 3.4-.3 3.4-3.9 0-2.4-.9-3.8-3.3-3.8h-2.2v7.7h-.1z" id="path163" fill="#898989"/>
      <path class="st0" d="M759.1 194h6.9v1.1h-5.6v3.2h5.2v1.1h-5.2v3.5h5.6v1.1h-6.9v-10z" id="path165" fill="#898989"/>
      <path class="st0" d="M767.8 194h1.4l5.3 8.1V194h1.3v10h-1.5l-5.2-8v8h-1.3v-10z" id="path167" fill="#898989"/>
      <path class="st0" d="M780.5 195.1h-3.3V194h8v1.1h-3.3v8.9h-1.3v-8.9h-.1z" id="path169" fill="#898989"/>
      <path class="st0" d="M786.5 194h1.3v10h-1.3v-10z" id="path171" fill="#898989"/>
      <path class="st0" d="M790.3 194h6.6v1.1h-5.2v3.2h4.6v1.1h-4.6v4.6h-1.3l-.1-10z" id="path173" fill="#898989"/>
      <path class="st0" d="M798.7 194h1.3v10h-1.3v-10z" id="path175" fill="#898989"/>
      <path class="st0" d="M802.5 194h6.9v1.1h-5.6v3.2h5.2v1.1h-5.2v3.5h5.6v1.1h-6.9v-10z" id="path177" fill="#898989"/>
      <path class="st0" d="M811.3 194h4.7c1.9 0 3 1 3 2.6 0 1.2-.5 2.2-1.7 2.5 1.2.2 1.4 1.1 1.5 2.1.1 1 0 2.1.6 2.8h-1.5c-.4-.4-.2-1.5-.4-2.5-.1-1-.4-1.8-1.7-1.8h-3.3v4.3h-1.3v-10h.1zm4.1 4.6c1.2 0 2.3-.3 2.3-1.8 0-1-.5-1.7-1.8-1.7h-3.3v3.5h2.8z" id="path179" fill="#898989"/>
      <path class="st0" d="M831 196.9c-.2-1.4-1.1-2-2.5-2-1.1 0-2.2.4-2.2 1.7 0 1.2 1.6 1.4 3.2 1.8 1.6.4 3.2.9 3.2 2.9 0 2.1-2.1 3-3.9 3-2.2 0-4.1-1.1-4.1-3.5h1.3c0 1.7 1.4 2.4 2.9 2.4 1.2 0 2.5-.4 2.5-1.8s-1.6-1.6-3.2-2c-1.6-.4-3.2-.8-3.2-2.6 0-2 1.8-2.9 3.6-2.9 2 0 3.6 1 3.7 3.2H831v-.2z" id="path181" fill="#898989"/>
      <path class="st0" d="M834.5 194h6.9v1.1h-5.6v3.2h5.2v1.1h-5.2v3.5h5.6v1.1h-6.9v-10z" id="path183" fill="#898989"/>
      <path class="st0" d="M850.4 197c-.3-1.4-1.4-2.1-2.8-2.1-2.4 0-3.4 2-3.4 4 0 2.3 1 4.2 3.4 4.2 1.8 0 2.8-1.2 2.9-2.9h1.3c-.3 2.5-1.8 4-4.3 4-3.1 0-4.6-2.3-4.6-5.2 0-2.9 1.7-5.3 4.7-5.3 2.1 0 3.8 1.1 4.1 3.3h-1.3z" id="path185" fill="#898989"/>
      <path class="st0" d="M855.9 195.1h-3.3V194h8v1.1h-3.3v8.9H856v-8.9h-.1z" id="path187" fill="#898989"/>
      <path class="st0" d="M862 194h1.3v10H862v-10z" id="path189" fill="#898989"/>
      <path class="st0" d="M870 193.7c3.2 0 4.8 2.5 4.8 5.2s-1.6 5.2-4.8 5.2c-3.2 0-4.8-2.5-4.8-5.2.1-2.7 1.7-5.2 4.8-5.2zm0 9.4c2.4 0 3.5-2.1 3.5-4.1 0-2-1-4.1-3.5-4.1s-3.5 2.1-3.5 4.1c0 2 1.1 4.1 3.5 4.1z" id="path191" fill="#898989"/>
      <path class="st0" d="M876.7 194h1.4l5.3 8.1V194h1.3v10h-1.5l-5.2-8v8h-1.3v-10z" id="path193" fill="#898989"/>
    </g>
  </g>
  <g id="g195" transform="translate(-8.95 -43.2)">
    <g id="g197">
      <path class="st0" d="M793 362.6h3.2c1.5 0 2.3.8 2.3 2.2 0 1.4-.8 2.2-2.3 2.2H794v3h-1v-7.4zm.9 3.5h1.9c1.1 0 1.6-.5 1.6-1.3 0-.9-.5-1.3-1.6-1.3h-1.9v2.6z" id="path199" fill="#898989"/>
      <path class="st0" d="M799.5 364.6h.8v1.1c.4-.9 1-1.3 2-1.2v.9c-1.4 0-1.9.8-1.9 2.2v2.4h-.9v-5.4z" id="path201" fill="#898989"/>
      <path class="st0" d="M805 364.5c1.7 0 2.6 1.2 2.6 2.8 0 1.6-.9 2.8-2.6 2.8-1.7 0-2.6-1.2-2.6-2.8 0-1.6.9-2.8 2.6-2.8zm0 4.8c.9 0 1.7-.7 1.7-2s-.7-2-1.7-2c-.9 0-1.7.7-1.7 2 .1 1.3.8 2 1.7 2z" id="path203" fill="#898989"/>
      <path class="st0" d="M813.4 370h-.9v-.7c-.3.6-1 .8-1.7.8-1.6 0-2.5-1.3-2.5-2.8 0-1.5.8-2.8 2.4-2.8.5 0 1.3.2 1.7.8v-2.7h.9l.1 7.4zm-2.5-.7c1.2 0 1.6-1 1.6-2 0-1.1-.5-2-1.7-2s-1.6 1-1.6 2.1c.1.9.6 1.9 1.7 1.9z" id="path205" fill="#898989"/>
      <path class="st0" d="M819.2 370h-.8v-.8c-.4.7-1 1-1.7 1-1.4 0-1.8-.8-1.8-1.9v-3.5h.9v3.6c0 .6.4 1.1 1.1 1.1 1.1 0 1.6-.7 1.6-1.7v-3h.9v5.2h-.2z" id="path207" fill="#898989"/>
      <path class="st0" d="M824.1 366.3c-.1-.7-.6-1.1-1.3-1.1-1.3 0-1.7 1-1.7 2.1 0 1 .4 1.9 1.6 1.9.8 0 1.3-.5 1.5-1.3h.9c-.2 1.3-1 2.1-2.3 2.1-1.6 0-2.5-1.1-2.5-2.7s.8-2.9 2.5-2.9c1.2 0 2.2.6 2.3 1.8l-1 .1z" id="path209" fill="#898989"/>
      <path class="st0" d="M827.2 364.6h1.1v.8h-1.1v3.3c0 .4.1.5.7.5h.4v.8h-.7c-.9 0-1.3-.2-1.3-1.2v-3.4h-.9v-.8h.9V363h.9v1.6z" id="path211" fill="#898989"/>
      <path class="st0" d="M830.2 363.7h-.9v-1.1h.9v1.1zm-.9.9h.9v5.3h-.9v-5.3z" id="path213" fill="#898989"/>
      <path class="st0" d="M833.8 364.5c1.7 0 2.6 1.2 2.6 2.8 0 1.6-.9 2.8-2.6 2.8-1.7 0-2.6-1.2-2.6-2.8.1-1.6 1-2.8 2.6-2.8zm0 4.8c.9 0 1.7-.7 1.7-2s-.7-2-1.7-2c-.9 0-1.7.7-1.7 2 .1 1.3.8 2 1.7 2z" id="path215" fill="#898989"/>
      <path class="st0" d="M837.5 364.6h.8v.8c.4-.7 1-1 1.7-1 1.4 0 1.8.8 1.8 1.9v3.5h-.8v-3.6c0-.6-.4-1.1-1.1-1.1-1.1 0-1.6.7-1.6 1.7v3h-.9l.1-5.2z" id="path217" fill="#898989"/>
      <path class="st0" d="M846.2 362.6h1l3.9 6v-6h.9v7.4h-1l-3.8-5.9v5.9h-.9l-.1-7.4z" id="path219" fill="#898989"/>
      <path class="st0" d="M857.9 370h-.8v-.8c-.4.7-1 1-1.7 1-1.4 0-1.8-.8-1.8-1.9v-3.5h.9v3.6c0 .6.4 1.1 1.1 1.1 1.1 0 1.6-.7 1.6-1.7v-3h.9v5.2h-.2z" id="path221" fill="#898989"/>
      <path class="st0" d="M859.2 364.6h.8v.8c.4-.6 1-.9 1.7-.9.6 0 1.2.3 1.5.9.4-.6 1-.9 1.7-.9 1.1 0 1.8.4 1.8 1.5v3.9h-.9v-3.5c0-.7-.2-1.2-1-1.2s-1.4.5-1.4 1.4v3.3h-.9v-3.5c0-.7-.2-1.2-1-1.2-1 0-1.4 1-1.4 1.4v3.3h-.9v-5.3z" id="path223" fill="#898989"/>
      <path class="st0" d="M868 362.6h.9v2.8c.3-.6 1-.8 1.7-.8 1.6 0 2.5 1.3 2.5 2.8 0 1.5-.8 2.8-2.4 2.8-.5 0-1.3-.2-1.7-.8v.7h-1v-7.5zm2.5 2.7c-1.2 0-1.6 1-1.6 2s.5 2 1.7 2 1.6-1 1.6-2.1c-.1-.9-.6-1.9-1.7-1.9z" id="path225" fill="#898989"/>
      <path class="st0" d="M878.6 368.3c-.2 1.2-1.1 1.8-2.3 1.8-1.7 0-2.5-1.2-2.6-2.8 0-1.6 1.1-2.8 2.5-2.8 1.9 0 2.5 1.8 2.4 3h-4c0 .9.5 1.8 1.7 1.8.7 0 1.2-.4 1.4-1h.9zm-.8-1.5c0-.8-.7-1.5-1.5-1.5-.9 0-1.5.7-1.5 1.5h3z" id="path227" fill="#898989"/>
      <path class="st0" d="M879.6 364.6h.8v1.1c.4-.9 1-1.3 2-1.2v.9c-1.4 0-1.9.8-1.9 2.2v2.4h-.9v-5.4z" id="path229" fill="#898989"/>
    </g>
  </g>
  <g id="g231" transform="translate(-8.95 -43.2)">
    <g id="g233">
      <path class="st0" d="M615 363.1h1.1l2.9 7.4h-1.1l-.8-2.2H614l-.8 2.2h-1l2.8-7.4zm-.8 4.3h2.5l-1.2-3.4-1.3 3.4z" id="path235" fill="#898989"/>
      <path class="st0" d="M620 368.8c0 .8.7 1 1.4 1 .5 0 1.3-.1 1.3-.8 0-.7-.9-.8-1.7-1-.9-.2-1.7-.5-1.7-1.5 0-1.1 1.1-1.5 2-1.5 1.2 0 2.1.4 2.2 1.7h-.9c-.1-.7-.7-.9-1.2-.9s-1.1.1-1.1.7.9.7 1.7.9c.9.2 1.7.5 1.7 1.5 0 1.3-1.2 1.7-2.3 1.7-1.2 0-2.2-.5-2.3-1.8h.9z" id="path237" fill="#898989"/>
      <path class="st0" d="M625.2 368.8c0 .8.7 1 1.4 1 .5 0 1.3-.1 1.3-.8 0-.7-.9-.8-1.7-1-.9-.2-1.7-.5-1.7-1.5 0-1.1 1.1-1.5 2-1.5 1.2 0 2.1.4 2.2 1.7h-.9c-.1-.7-.7-.9-1.2-.9s-1.1.1-1.1.7.9.7 1.7.9c.9.2 1.7.5 1.7 1.5 0 1.3-1.2 1.7-2.3 1.7-1.2 0-2.2-.5-2.3-1.8h.9z" id="path239" fill="#898989"/>
      <path class="st0" d="M634.3 368.8c-.2 1.2-1.1 1.8-2.3 1.8-1.7 0-2.5-1.2-2.6-2.8 0-1.6 1.1-2.8 2.5-2.8 1.9 0 2.5 1.8 2.4 3h-4c0 .9.5 1.8 1.7 1.8.7 0 1.2-.4 1.4-1h.9zm-.8-1.5c0-.8-.7-1.5-1.5-1.5-.9 0-1.5.7-1.5 1.5h3z" id="path241" fill="#898989"/>
      <path class="st0" d="M635.3 365.1h.8v.8c.4-.6 1-.9 1.7-.9.6 0 1.2.3 1.5.9.4-.6 1-.9 1.7-.9 1.1 0 1.8.4 1.8 1.5v3.9h-.9V367c0-.7-.2-1.2-1-1.2s-1.4.5-1.4 1.4v3.3h-.9V367c0-.7-.2-1.2-1-1.2-1 0-1.4 1-1.4 1.4v3.3h-.9v-5.4z" id="path243" fill="#898989"/>
      <path class="st0" d="M644.1 363.1h.9v2.8c.3-.6 1-.8 1.7-.8 1.6 0 2.5 1.3 2.5 2.8 0 1.5-.8 2.8-2.4 2.8-.5 0-1.3-.2-1.7-.8v.7h-.9l-.1-7.5zm2.5 2.7c-1.2 0-1.6 1-1.6 2s.5 2 1.7 2 1.6-1 1.6-2.1c0-.9-.5-1.9-1.7-1.9z" id="path245" fill="#898989"/>
      <path class="st0" d="M650.3 363.1h.9v7.4h-.9v-7.4z" id="path247" fill="#898989"/>
      <path class="st0" d="M654.6 371.2c-.4 1-.8 1.4-1.5 1.4-.2 0-.4 0-.6-.1v-.8c.2.1.3.1.5.1.4 0 .6-.2.7-.5l.4-.9-2.1-5.3h1l1.6 4.4 1.5-4.4h.9l-2.4 6.1z" id="path249" fill="#898989"/>
      <path class="st0" d="M625.1 375.5h3.2c1.5 0 2.3.8 2.3 2.2 0 1.4-.8 2.2-2.3 2.2h-2.2v3h-1v-7.4zm1 3.5h1.9c1.1 0 1.6-.5 1.6-1.3 0-.9-.5-1.3-1.6-1.3h-1.9v2.6z" id="path251" fill="#898989"/>
      <path class="st0" d="M631.7 375.5h.9v7.4h-.9v-7.4z" id="path253" fill="#898989"/>
      <path class="st0" d="M638.6 382.8c-.2.1-.3.1-.6.1-.5 0-.7-.2-.7-.8-.5.6-1.1.8-1.9.8-1 0-1.8-.4-1.8-1.5 0-1.2.9-1.5 1.8-1.6 1-.2 1.8-.1 1.8-.8 0-.8-.6-.9-1.2-.9-.7 0-1.3.2-1.3 1h-.9c.1-1.3 1.1-1.8 2.3-1.8 1 0 2 .2 2 1.5v2.7c0 .4 0 .6.3.6.1 0 .2 0 .3-.1l-.1.8zm-1.4-2.7c-.3.2-1 .3-1.6.4-.6.1-1.1.3-1.1 1 0 .6.5.8 1 .8 1.2 0 1.6-.7 1.6-1.2l.1-1z" id="path255" fill="#898989"/>
      <path class="st0" d="M639.4 377.5h.8v.8c.4-.7 1-1 1.7-1 1.4 0 1.8.8 1.8 1.9v3.5h-.7v-3.6c0-.6-.4-1.1-1.1-1.1-1.1 0-1.6.7-1.6 1.7v3h-.9v-5.2z" id="path257" fill="#898989"/>
      <path class="st0" d="M646.4 377.5h1.1v.8h-1.1v3.3c0 .4.1.5.7.5h.4v.8h-.7c-.9 0-1.3-.2-1.3-1.2v-3.4h-.9v-.8h.9v-1.6h.9v1.6z" id="path259" fill="#898989"/>
    </g>
  </g>
  <g id="g261" transform="translate(-8.95 -43.2)">
    <g id="g263">
      <g id="g265">
        <path class="st0" d="M564.5 362.6h1.3l2.3 6.2 2.3-6.2h1.3v7.4h-.9v-6.1l-2.3 6.1h-.8l-2.3-6.1v6.1h-.9v-7.4z" id="path267" fill="#898989"/>
        <path class="st0" d="M575.6 364.5c1.7 0 2.6 1.2 2.6 2.8 0 1.6-.9 2.8-2.6 2.8-1.7 0-2.6-1.2-2.6-2.8 0-1.6.9-2.8 2.6-2.8zm0 4.8c.9 0 1.7-.7 1.7-2s-.7-2-1.7-2c-.9 0-1.7.7-1.7 2s.8 2 1.7 2z" id="path269" fill="#898989"/>
        <path class="st0" d="M584 370h-.9v-.7c-.3.6-1 .8-1.7.8-1.6 0-2.5-1.3-2.5-2.8 0-1.5.8-2.8 2.4-2.8.5 0 1.3.2 1.7.8v-2.7h.9l.1 7.4zm-2.5-.7c1.2 0 1.6-1 1.6-2 0-1.1-.5-2-1.7-2s-1.6 1-1.6 2.1c.1.9.6 1.9 1.7 1.9z" id="path271" fill="#898989"/>
        <path class="st0" d="M589.9 368.3c-.2 1.2-1.1 1.8-2.3 1.8-1.7 0-2.5-1.2-2.6-2.8 0-1.6 1.1-2.8 2.5-2.8 1.9 0 2.5 1.8 2.4 3h-4c0 .9.5 1.8 1.7 1.8.7 0 1.2-.4 1.4-1h.9zm-.9-1.5c0-.8-.7-1.5-1.5-1.5-.9 0-1.5.7-1.5 1.5h3z" id="path273" fill="#898989"/>
        <path class="st0" d="M590.9 362.6h.9v7.4h-.9v-7.4z" id="path275" fill="#898989"/>
      </g>
      <g id="g277">
        <path class="st0" d="M571.9 379.3v3h-1v-3l-2.8-4.3h1.2l2.2 3.5 2.2-3.5h1.1l-2.9 4.3z" id="path279" fill="#898989"/>
        <path class="st0" d="M578.8 380.5c-.2 1.2-1.1 1.8-2.3 1.8-1.7 0-2.5-1.2-2.6-2.8 0-1.6 1.1-2.8 2.5-2.8 1.9 0 2.5 1.8 2.4 3h-4c0 .9.5 1.8 1.7 1.8.7 0 1.2-.4 1.4-1h.9zm-.9-1.5c0-.8-.7-1.5-1.5-1.5-.9 0-1.5.7-1.5 1.5h3z" id="path281" fill="#898989"/>
        <path class="st0" d="M584.5 382.1c-.2.1-.4.1-.6.1-.5 0-.7-.2-.7-.8-.5.6-1.1.8-1.9.8-1 0-1.8-.4-1.8-1.5 0-1.2.9-1.5 1.8-1.6 1-.2 1.8-.1 1.8-.8 0-.8-.6-.9-1.2-.9-.7 0-1.3.2-1.3 1h-.9c.1-1.3 1.1-1.8 2.3-1.8 1 0 2 .2 2 1.5v2.7c0 .4 0 .6.3.6.1 0 .2 0 .3-.1l-.1.8zm-1.4-2.6c-.3.2-1 .3-1.6.4-.6.1-1.1.3-1.1 1 0 .6.5.8 1 .8 1.2 0 1.6-.7 1.6-1.2l.1-1z" id="path283" fill="#898989"/>
        <path class="st0" d="M585.3 376.9h.8v1.1c.4-.9 1-1.3 2-1.2v.9c-1.4 0-1.9.8-1.9 2.2v2.4h-.9v-5.4z" id="path285" fill="#898989"/>
      </g>
    </g>
  </g>
  <g id="g287" transform="translate(-8.95 -43.2)">
    <g id="g289">
      <path class="st0" d="M310.3 370h-1.1l-2.6-7.4h1.1l2.1 6.4 2.1-6.4h1l-2.6 7.4z" id="path291" fill="#898989"/>
      <path class="st0" d="M317.5 368.3c-.2 1.2-1.1 1.8-2.3 1.8-1.7 0-2.5-1.2-2.6-2.8 0-1.6 1.1-2.8 2.5-2.8 1.9 0 2.5 1.8 2.4 3h-4c0 .9.5 1.8 1.7 1.8.7 0 1.2-.4 1.4-1h.9zm-.8-1.5c0-.8-.7-1.5-1.5-1.5-.9 0-1.5.7-1.5 1.5h3z" id="path293" fill="#898989"/>
      <path class="st0" d="M318.5 362.6h.9v2.8c.3-.6 1-.9 1.7-.9 1.4 0 1.8.8 1.8 1.9v3.5h-.9v-3.6c0-.6-.4-1.1-1.1-1.1-1.1 0-1.6.7-1.6 1.7v3h-.9v-7.3h.1z" id="path295" fill="#898989"/>
      <path class="st0" d="M325.1 363.7h-.9v-1.1h.9v1.1zm-.8.9h.9v5.3h-.9v-5.3z" id="path297" fill="#898989"/>
      <path class="st0" d="M330.1 366.3c-.1-.7-.6-1.1-1.3-1.1-1.3 0-1.7 1-1.7 2.1 0 1 .4 1.9 1.6 1.9.8 0 1.3-.5 1.5-1.3h.9c-.2 1.3-1 2.1-2.3 2.1-1.6 0-2.5-1.1-2.5-2.7s.8-2.9 2.5-2.9c1.2 0 2.2.6 2.3 1.8l-1 .1z" id="path299" fill="#898989"/>
      <path class="st0" d="M332.1 362.6h.9v7.4h-.9v-7.4z" id="path301" fill="#898989"/>
      <path class="st0" d="M338.9 368.3c-.2 1.2-1.1 1.8-2.3 1.8-1.7 0-2.5-1.2-2.6-2.8 0-1.6 1.1-2.8 2.5-2.8 1.9 0 2.5 1.8 2.4 3h-4c0 .9.5 1.8 1.7 1.8.7 0 1.2-.4 1.4-1h.9zm-.9-1.5c0-.8-.7-1.5-1.5-1.5-.9 0-1.5.7-1.5 1.5h3z" id="path303" fill="#898989"/>
      <path class="st0" d="M344.9 362.6h1.1l2.9 7.4h-1.1l-.8-2.2h-3.1l-.9 2.2h-1l2.9-7.4zm-.8 4.3h2.5l-1.2-3.4-1.3 3.4z" id="path305" fill="#898989"/>
      <path class="st0" d="M350.6 364.6h1.1v.8h-1.1v3.3c0 .4.1.5.7.5h.4v.8h-.7c-.9 0-1.3-.2-1.3-1.2v-3.4h-.9v-.8h.9V363h.9v1.6z" id="path307" fill="#898989"/>
      <path class="st0" d="M353.9 364.6h1.1v.8h-1.1v3.3c0 .4.1.5.7.5h.4v.8h-.7c-.9 0-1.3-.2-1.3-1.2v-3.4h-.9v-.8h.9V363h.9v1.6z" id="path309" fill="#898989"/>
      <path class="st0" d="M355.8 364.6h.8v1.1c.4-.9 1-1.3 2-1.2v.9c-1.4 0-1.9.8-1.9 2.2v2.4h-.9v-5.4z" id="path311" fill="#898989"/>
      <path class="st0" d="M360.2 363.7h-.9v-1.1h.9v1.1zm-.8.9h.9v5.3h-.9v-5.3z" id="path313" fill="#898989"/>
      <path class="st0" d="M361.6 362.6h.9v2.8c.3-.6 1-.8 1.7-.8 1.6 0 2.5 1.3 2.5 2.8 0 1.5-.8 2.8-2.4 2.8-.5 0-1.3-.2-1.7-.8v.7h-.9v-7.5h-.1zm2.5 2.7c-1.2 0-1.6 1-1.6 2s.5 2 1.7 2 1.6-1 1.6-2.1c-.1-.9-.6-1.9-1.7-1.9z" id="path315" fill="#898989"/>
      <path class="st0" d="M372.1 370h-.8v-.8c-.4.7-1 1-1.7 1-1.4 0-1.8-.8-1.8-1.9v-3.5h.9v3.6c0 .6.4 1.1 1.1 1.1 1.1 0 1.6-.7 1.6-1.7v-3h.9v5.2h-.2z" id="path317" fill="#898989"/>
      <path class="st0" d="M374.6 364.6h1.1v.8h-1.1v3.3c0 .4.1.5.7.5h.4v.8h-.7c-.9 0-1.3-.2-1.3-1.2v-3.4h-.9v-.8h.9V363h.9v1.6z" id="path319" fill="#898989"/>
      <path class="st0" d="M381.2 368.3c-.2 1.2-1.1 1.8-2.3 1.8-1.7 0-2.5-1.2-2.6-2.8 0-1.6 1.1-2.8 2.5-2.8 1.9 0 2.5 1.8 2.4 3h-4c0 .9.5 1.8 1.7 1.8.7 0 1.2-.4 1.4-1h.9zm-.8-1.5c0-.8-.7-1.5-1.5-1.5-.9 0-1.5.7-1.5 1.5h3z" id="path321" fill="#898989"/>
      <path class="st0" d="M382.7 368.3c0 .8.7 1 1.4 1 .5 0 1.3-.1 1.3-.8 0-.7-.9-.8-1.7-1-.9-.2-1.7-.5-1.7-1.5 0-1.1 1.1-1.5 2-1.5 1.2 0 2.1.4 2.2 1.7h-.9c-.1-.7-.7-.9-1.2-.9s-1.1.1-1.1.7.9.7 1.7.9c.9.2 1.7.5 1.7 1.5 0 1.3-1.2 1.7-2.3 1.7-1.2 0-2.2-.5-2.3-1.8h.9z" id="path323" fill="#898989"/>
    </g>
  </g>
  <g id="g325" transform="translate(-8.95 -43.2)">
    <g id="g327">
      <path class="st0" d="M165.7 363.4h-2.5v-.8h5.9v.8h-2.5v6.5h-1v-6.5h.1z" id="path329" fill="#898989"/>
      <path class="st0" d="M170.7 370.7c-.4 1-.8 1.4-1.5 1.4-.2 0-.4 0-.6-.1v-.8c.2.1.3.1.5.1.4 0 .6-.2.7-.5l.4-.9-2.1-5.3h1l1.6 4.4 1.5-4.4h.9l-2.4 6.1z" id="path331" fill="#898989"/>
      <path class="st0" d="M173.8 364.6h.9v.7c.3-.6 1-.8 1.7-.8 1.6 0 2.5 1.3 2.5 2.8 0 1.5-.8 2.8-2.4 2.8-.5 0-1.3-.2-1.7-.8v2.8h-.9v-7.5h-.1zm2.5.7c-1.2 0-1.6 1-1.6 2s.5 2 1.7 2 1.6-1 1.6-2.1c-.1-.9-.6-1.9-1.7-1.9z" id="path333" fill="#898989"/>
      <path class="st0" d="M184.4 368.3c-.2 1.2-1.1 1.8-2.3 1.8-1.7 0-2.5-1.2-2.6-2.8 0-1.6 1.1-2.8 2.5-2.8 1.9 0 2.5 1.8 2.4 3h-4c0 .9.5 1.8 1.7 1.8.7 0 1.2-.4 1.4-1h.9zm-.8-1.5c0-.8-.7-1.5-1.5-1.5-.9 0-1.5.7-1.5 1.5h3z" id="path335" fill="#898989"/>
    </g>
  </g>
  <g id="g337" transform="translate(-8.95 -43.2)">
    <g id="g339">
      <path class="st0" d="M88.3 362.6h1.3l2.3 6.2 2.3-6.2h1.3v7.4h-.9v-6.1l-2.3 6.1h-.8l-2.3-6.1v6.1h-.9v-7.4z" id="path341" fill="#898989"/>
      <path class="st0" d="M101.9 369.9c-.2.1-.4.1-.6.1-.5 0-.7-.2-.7-.8-.5.6-1.1.8-1.9.8-1 0-1.8-.4-1.8-1.5 0-1.2.9-1.5 1.8-1.6 1-.2 1.8-.1 1.8-.8 0-.8-.6-.9-1.2-.9-.7 0-1.3.2-1.3 1h-.9c.1-1.3 1.1-1.8 2.3-1.8 1 0 2 .2 2 1.5v2.7c0 .4 0 .6.3.6.1 0 .2 0 .3-.1v.8h-.1zm-1.5-2.7c-.3.2-1 .3-1.6.4-.6.1-1.1.3-1.1 1 0 .6.5.8 1 .8 1.2 0 1.6-.7 1.6-1.2l.1-1z" id="path343" fill="#898989"/>
      <path class="st0" d="M102.7 364.6h.8v.8c.4-.7 1-1 1.7-1 1.4 0 1.8.8 1.8 1.9v3.5h-.9v-3.6c0-.6-.4-1.1-1.1-1.1-1.1 0-1.6.7-1.6 1.7v3h-.9v-5.2h.2z" id="path345" fill="#898989"/>
      <path class="st0" d="M112.8 370h-.8v-.8c-.4.7-1 1-1.7 1-1.4 0-1.8-.8-1.8-1.9v-3.5h.9v3.6c0 .6.4 1.1 1.1 1.1 1.1 0 1.6-.7 1.6-1.7v-3h.9v5.2h-.2z" id="path347" fill="#898989"/>
      <path class="st0" d="M114.5 365.4h-.9v-.8h.9v-.8c0-.9.5-1.3 1.5-1.3.2 0 .4 0 .6.1v.8c-.2-.1-.3-.1-.5-.1-.4 0-.7.1-.7.6v.7h1v.8h-1v4.6h-.9v-4.6z" id="path349" fill="#898989"/>
      <path class="st0" d="M121.9 369.9c-.2.1-.4.1-.6.1-.5 0-.7-.2-.7-.8-.5.6-1.1.8-1.9.8-1 0-1.8-.4-1.8-1.5 0-1.2.9-1.5 1.8-1.6 1-.2 1.8-.1 1.8-.8 0-.8-.6-.9-1.2-.9-.7 0-1.3.2-1.3 1h-.9c.1-1.3 1.1-1.8 2.3-1.8 1 0 2 .2 2 1.5v2.7c0 .4 0 .6.3.6.1 0 .2 0 .3-.1v.8h-.1zm-1.4-2.7c-.3.2-1 .3-1.6.4-.6.1-1.1.3-1.1 1 0 .6.5.8 1 .8 1.2 0 1.6-.7 1.6-1.2l.1-1z" id="path351" fill="#898989"/>
      <path class="st0" d="M126.3 366.3c-.1-.7-.6-1.1-1.3-1.1-1.3 0-1.7 1-1.7 2.1 0 1 .4 1.9 1.6 1.9.8 0 1.3-.5 1.5-1.3h.9c-.2 1.3-1 2.1-2.3 2.1-1.6 0-2.5-1.1-2.5-2.7s.8-2.9 2.5-2.9c1.2 0 2.2.6 2.3 1.8l-1 .1z" id="path353" fill="#898989"/>
      <path class="st0" d="M129.5 364.6h1.1v.8h-1.1v3.3c0 .4.1.5.7.5h.4v.8h-.7c-.9 0-1.3-.2-1.3-1.2v-3.4h-.9v-.8h.9V363h.9v1.6z" id="path355" fill="#898989"/>
      <path class="st0" d="M135.9 370h-.8v-.8c-.4.7-1 1-1.7 1-1.4 0-1.8-.8-1.8-1.9v-3.5h.9v3.6c0 .6.4 1.1 1.1 1.1 1.1 0 1.6-.7 1.6-1.7v-3h.9v5.2h-.2z" id="path357" fill="#898989"/>
      <path class="st0" d="M137.2 364.6h.8v1.1c.4-.9 1-1.3 2-1.2v.9c-1.4 0-1.9.8-1.9 2.2v2.4h-.9v-5.4z" id="path359" fill="#898989"/>
      <path class="st0" d="M145 368.3c-.2 1.2-1.1 1.8-2.3 1.8-1.7 0-2.5-1.2-2.6-2.8 0-1.6 1.1-2.8 2.5-2.8 1.9 0 2.5 1.8 2.4 3h-4c0 .9.5 1.8 1.7 1.8.7 0 1.2-.4 1.4-1h.9zm-.8-1.5c0-.8-.7-1.5-1.5-1.5-.9 0-1.5.7-1.5 1.5h3z" id="path361" fill="#898989"/>
      <path class="st0" d="M146 364.6h.8v1.1c.4-.9 1-1.3 2-1.2v.9c-1.4 0-1.9.8-1.9 2.2v2.4h-.9v-5.4z" id="path363" fill="#898989"/>
    </g>
  </g>
  <g id="g365" transform="translate(-8.95 -43.2)">
    <g id="g367">
      <path class="st0" d="M44.1 364.8c-.2-1-1-1.6-2.1-1.6-1.8 0-2.5 1.4-2.5 3 0 1.7.7 3.1 2.5 3.1 1.3 0 2-.9 2.1-2.1h1c-.2 1.8-1.3 2.9-3.2 2.9-2.3 0-3.4-1.7-3.4-3.8 0-2.1 1.2-3.9 3.5-3.9 1.5 0 2.8.8 3 2.4h-.9z" id="path369" fill="#898989"/>
      <path class="st0" d="M48.5 364.5c1.7 0 2.6 1.2 2.6 2.8 0 1.6-.9 2.8-2.6 2.8-1.7 0-2.6-1.2-2.6-2.8 0-1.6.9-2.8 2.6-2.8zm0 4.8c.9 0 1.7-.7 1.7-2s-.7-2-1.7-2-1.7.7-1.7 2 .8 2 1.7 2z" id="path371" fill="#898989"/>
      <path class="st0" d="M56.5 370h-.8v-.8c-.4.7-1 1-1.7 1-1.4 0-1.8-.8-1.8-1.9v-3.5h.8v3.6c0 .6.4 1.1 1.1 1.1 1.1 0 1.6-.7 1.6-1.7v-3h.9l-.1 5.2z" id="path373" fill="#898989"/>
      <path class="st0" d="M57.8 364.6h.8v.8c.4-.7 1-1 1.7-1 1.4 0 1.8.8 1.8 1.9v3.5h-.9v-3.6c0-.6-.4-1.1-1.1-1.1-1.1 0-1.6.7-1.6 1.7v3h-.9v-5.2h.2z" id="path375" fill="#898989"/>
      <path class="st0" d="M64.8 364.6h1.1v.8h-1.1v3.3c0 .4.1.5.7.5h.4v.8h-.7c-.9 0-1.3-.2-1.3-1.2v-3.4H63v-.8h.9V363h.9v1.6z" id="path377" fill="#898989"/>
      <path class="st0" d="M66.8 364.6h.8v1.1c.4-.9 1-1.3 2-1.2v.9c-1.4 0-1.9.8-1.9 2.2v2.4h-.9v-5.4z" id="path379" fill="#898989"/>
      <path class="st0" d="M72.3 370.7c-.4 1-.8 1.4-1.5 1.4-.2 0-.4 0-.6-.1v-.8c.2.1.3.1.5.1.4 0 .6-.2.7-.5l.4-.9-2.1-5.3h1l1.6 4.4 1.5-4.4h.9l-2.4 6.1z" id="path381" fill="#898989"/>
    </g>
  </g>
  <g id="g383" transform="translate(-8.95 -43.2)">
    <g id="g385">
      <path class="st0" d="M510.3 364.8c-.2-1-1-1.6-2.1-1.6-1.8 0-2.5 1.4-2.5 3 0 1.7.7 3.1 2.5 3.1 1.3 0 2-.9 2.1-2.1h1c-.2 1.8-1.3 2.9-3.2 2.9-2.3 0-3.4-1.7-3.4-3.8 0-2.1 1.2-3.9 3.5-3.9 1.5 0 2.8.8 3 2.4h-.9z" id="path387" fill="#898989"/>
      <path class="st0" d="M512.4 362.6h.9v2.8c.3-.6 1-.9 1.7-.9 1.4 0 1.8.8 1.8 1.9v3.5h-.9v-3.6c0-.6-.4-1.1-1.1-1.1-1.1 0-1.6.7-1.6 1.7v3h-.9v-7.3h.1z" id="path389" fill="#898989"/>
      <path class="st0" d="M522.6 368.3c-.2 1.2-1.1 1.8-2.3 1.8-1.7 0-2.5-1.2-2.6-2.8 0-1.6 1.1-2.8 2.5-2.8 1.9 0 2.5 1.8 2.4 3h-4c0 .9.5 1.8 1.7 1.8.7 0 1.2-.4 1.4-1h.9zm-.8-1.5c0-.8-.7-1.5-1.5-1.5-.9 0-1.5.7-1.5 1.5h3z" id="path391" fill="#898989"/>
      <path class="st0" d="M527.2 366.3c-.1-.7-.6-1.1-1.3-1.1-1.3 0-1.7 1-1.7 2.1 0 1 .4 1.9 1.6 1.9.8 0 1.3-.5 1.5-1.3h.9c-.2 1.3-1 2.1-2.3 2.1-1.6 0-2.5-1.1-2.5-2.7s.8-2.9 2.5-2.9c1.2 0 2.2.6 2.3 1.8l-1 .1z" id="path393" fill="#898989"/>
      <path class="st0" d="M529.2 362.6h.9v4.4l2.4-2.3h1.2l-2.1 1.9 2.3 3.4h-1.1l-1.8-2.8-.8.8v2h-.9v-7.4h-.1z" id="path395" fill="#898989"/>
      <path class="st0" d="M509.4 375h2.5c2.3 0 3.5 1.1 3.5 3.5 0 2.5-1.1 3.9-3.5 3.9h-2.5V375zm1 6.5h1.6c.7 0 2.5-.2 2.5-2.9 0-1.8-.6-2.8-2.5-2.8h-1.6v5.7z" id="path397" fill="#898989"/>
      <path class="st0" d="M517.4 376h-.9v-1h.9v1zm-.9 1h.9v5.3h-.9V377z" id="path399" fill="#898989"/>
      <path class="st0" d="M523.4 381.9c0 1.7-.8 2.6-2.5 2.6-1 0-2.2-.4-2.2-1.6h.9c0 .6.8.9 1.4.9 1.1 0 1.6-.8 1.6-2v-.3c-.3.6-1 1-1.7 1-1.6 0-2.4-1.2-2.4-2.7 0-1.3.6-2.8 2.5-2.8.7 0 1.3.3 1.6.9v-.9h.8v4.9zm-.9-2.4c0-.9-.4-1.9-1.5-1.9s-1.6.9-1.6 1.9c0 1 .3 2 1.5 2 1.2.1 1.6-1 1.6-2z" id="path401" fill="#898989"/>
      <path class="st0" d="M525.6 376h-.9v-1h.9v1zm-.9 1h.9v5.3h-.9V377z" id="path403" fill="#898989"/>
      <path class="st0" d="M528.2 377h1.1v.8h-1.1v3.3c0 .4.1.5.7.5h.4v.8h-.7c-.9 0-1.3-.2-1.3-1.2v-3.4h-.9v-.8h.9v-1.6h.9v1.6z" id="path405" fill="#898989"/>
    </g>
  </g>
  <path class="st1" id="polyline407" fill="none" stroke="#898989" stroke-width="1.5" stroke-miterlimit="10" d="M24.55 275.3v33h47.8v-33"/>
  <path class="st1" id="polyline409" fill="none" stroke="#898989" stroke-width="1.5" stroke-miterlimit="10" d="M82.05 275.3v33h47.8v-33"/>
  <path class="st1" id="polyline411" fill="none" stroke="#898989" stroke-width="1.5" stroke-miterlimit="10" d="M141.15 275.3v33h47.7v-33"/>
  <path class="st1" id="polyline413" fill="none" stroke="#898989" stroke-width="1.5" stroke-miterlimit="10" d="M197.05 275.3v33h280v-33"/>
  <path class="st1" id="polyline415" fill="none" stroke="#898989" stroke-width="1.5" stroke-miterlimit="10" d="M486.25 275.3v33h47.7v-33"/>
  <path class="st1" id="polyline417" fill="none" stroke="#898989" stroke-width="1.5" stroke-miterlimit="10" d="M545.05 275.3v33h47.7v-33"/>
  <path class="st1" id="polyline419" fill="none" stroke="#898989" stroke-width="1.5" stroke-miterlimit="10" d="M604.15 275.3v33h47.8v-33"/>
  <path class="st1" id="polyline421" fill="none" stroke="#898989" stroke-width="1.5" stroke-miterlimit="10" d="M659.85 275.3v33h335.9v-33"/>
  <path class="st1" id="polyline423" fill="none" stroke="#898989" stroke-width="1.5" stroke-miterlimit="10" d="M23.75 204.8v-31.3h163.3v31.3"/>
  <path class="st1" id="polyline425" fill="none" stroke="#898989" stroke-width="1.5" stroke-miterlimit="10" d="M197.05 204.8v-31.3h335.3v31.3"/>
  <path class="st1" id="polyline427" fill="none" stroke="#898989" stroke-width="1.5" stroke-miterlimit="10" d="M543.05 204.8v-31.3h453v31.3"/>
</svg>
